<svg id="hero-name" version="1.1" id="Layer_1" xmlns="http://www.w3.org/2000/svg" xmlns:xlink="http://www.w3.org/1999/xlink" x="0px" y="0px"
	 viewBox="0 -4 810 120" style="" xml:space="preserve">
<g>
	<path d="M0,113.9L17.7,0l25.2,0.1c7.4,0.2,13.7,2.4,18.8,6.5c5.1,4.1,8.8,9.8,11,17.1c2.2,7.3,2.8,15.5,1.8,24.5l-2.2,16.7
		c-2.1,15.3-7,27.3-14.9,36c-7.9,8.7-17.8,13-29.7,13.1H0z M34.9,19.2L23.1,94.8l5,0.2c7,0,12.4-2.3,16.2-6.8
		c3.8-4.5,6.4-11.8,7.7-21.8l2.4-18.5c0.7-6,0.9-10.4,0.8-13.1c-0.2-5.2-1.4-9.1-3.6-11.6c-2.2-2.5-5.3-3.8-9.5-4L34.9,19.2z"/>
	<path d="M114.8,115.4c-9-0.2-16.1-3.5-21.4-9.9c-5.3-6.4-8.1-15.2-8.6-26.5c-0.2-3.9,0-7.9,0.4-11.9l2.6-18.9
		c1.4-10.1,4-19.1,7.9-26.9c3.9-7.8,8.8-13.6,14.7-17.4c5.8-3.8,12.4-5.6,19.8-5.5c9.1,0.2,16.2,3.7,21.4,10.4
		c5.2,6.7,7.9,15.9,8.3,27.5c0.1,4.4-0.1,8.5-0.6,12.4l-2.3,17.4c-2.1,15.6-6.8,27.8-14.2,36.6C135.4,111.5,126,115.7,114.8,115.4z
		 M139.1,47.9c0.6-5.4,0.8-9.5,0.8-12.4c-0.2-11.6-4-17.6-11.3-17.9c-5.6-0.3-10.1,2.1-13.6,7.1c-3.4,5-5.8,12.8-7.2,23.4l-2.5,19.2
		c-0.6,5.2-0.8,9.2-0.6,12.1c0.2,10.9,4.1,16.6,11.6,17c5.3,0.2,9.7-2,13.1-6.6c3.4-4.6,5.8-12.1,7.2-22.5L139.1,47.9z"/>
	<path d="M208,0l6,81.9L245.3,0h26.5l-17.8,113.9h-20.2l4.9-31.5l8.8-45l-31.3,76.5h-13.7l-7.7-79.1l-5.8,49l-4.6,30h-20.1L182,0
		H208z"/>
	<path d="M291.7,113.9h-20.1L289.3,0h20.1L291.7,113.9z"/>
	<path d="M378.5,113.9h-19.7L341,38.4l-11.8,75.5h-20.1L326.8,0h19.7l17.9,75.5L376.2,0h20.1L378.5,113.9z"/>
	<path d="M416.1,113.9H396L413.8,0h20.1L416.1,113.9z"/>
	<path d="M506.1,75.9c-1.3,12.4-5.3,22.1-12.2,29.3c-6.9,7.2-15.6,10.6-26.2,10.3c-9.1-0.2-16.1-3.5-21.1-10
		c-5-6.5-7.6-15.4-7.9-26.9c-0.1-3.9,0.1-7.8,0.6-11.8l2.6-18.8c2.2-16.1,7-28.4,14.3-37c7.3-8.6,16.4-12.7,27.3-12.4
		c9.5,0.2,16.8,3.7,21.9,10.5c5.1,6.9,7.6,16.8,7.6,29.8l-20.3-0.1l0.1-7.7c-0.1-8.8-3.8-13.3-11-13.5c-5.6-0.2-10,2-13.2,6.8
		c-3.2,4.7-5.4,12.4-6.5,23l-2.5,19.6c-0.7,6.3-1,10.3-1.1,12.3c-0.5,11.3,3.1,17.1,10.7,17.4c4.7,0.3,8.5-1.1,11.3-4.2
		c2.8-3,4.8-8.5,5.9-16.3L506.1,75.9z"/>
	<path d="M616.9,101c-3.8,4.7-8.7,8.3-14.8,10.8c-6.1,2.5-12.6,3.7-19.6,3.6c-6.1-0.1-11.4-1.6-15.9-4.5c-4.5-2.9-8-7.2-10.4-12.8
		c-2.5-5.6-3.8-12.1-4-19.4c-0.1-4,0-8,0.5-12.1l2.5-18.8c2.2-15.8,6.8-28.1,13.9-36.8c7.1-8.7,16.4-12.9,27.8-12.6
		c9.7,0.2,17.1,3.5,22,9.8c4.9,6.3,7.5,15.7,7.5,28.1l-19.6-0.1l-0.2-6.3c-0.6-8.1-4.2-12.3-10.7-12.6c-9.7-0.4-16.1,6.7-19.1,21.3
		l-1.1,5.9l-2.8,22c-0.6,5-0.8,9.3-0.7,12.8c0.2,5.8,1.4,10.1,3.5,12.7c2.1,2.6,5.1,4,9,4.1c3.6,0.1,7.7-1.2,12.2-4l3.6-21h-14.1
		l2.7-17.4h34.1L616.9,101z"/>
	<path d="M680,90.6h-27.2l-8.9,23.3h-21.9L670.8,0h18.5l13.4,113.9h-20.8L680,90.6z M660.3,71.4h18.4L675.8,31L660.3,71.4z"/>
	<path d="M782.2,113.9h-19.7l-17.8-75.5L733,113.9h-20.1L730.5,0h19.7l17.9,75.5L779.9,0H800L782.2,113.9z"/>
</g>
</svg>